<svg id="Calque_1" data-name="Calque 1" xmlns="http://www.w3.org/2000/svg" viewBox="0 0 160.26 39.31"><defs><style>.cls-1{fill:#fff;}</style></defs><title>Ambre-pantone-blanc</title><path class="cls-1" d="M243.11,489.45,252,512h-1.48l-2.84-7.22H236.9L234,512h-1.48l9.05-22.52Zm4.13,14.1-4.83-12.74h-.06l-5,12.74Z" transform="translate(-183.83 -481.05)"/><path class="cls-1" d="M256.13,489.45h2l8.8,21H267l8.71-21h2V512h-1.39V491.15h-.06L267.64,512h-1.39l-8.67-20.82h-.06V512h-1.39Z" transform="translate(-183.83 -481.05)"/><path class="cls-1" d="M284.1,489.45h9c5.36,0,7.1,2.93,7.1,5.83a4.82,4.82,0,0,1-4.38,4.79l.06.06a5.55,5.55,0,0,1,5.08,5.52c0,4.1-3.15,6.31-7.85,6.31h-9Zm1.39,10.22h7.63c3.75,0,5.71-1.89,5.71-4.64,0-3.25-2.71-4.38-5.71-4.38h-7.63Zm0,11.1h7.63c4,0,6.47-1.77,6.47-5.11,0-3.85-3.5-4.79-6.47-4.79h-7.63Z" transform="translate(-183.83 -481.05)"/><path class="cls-1" d="M306.46,489.45h9.4c3.94,0,7.13,1.45,7.13,5.8a5.55,5.55,0,0,1-4.83,5.77v.06c3.34.38,4.16,2.49,4.38,4.83s-.16,4.86.76,6.06h-1.55c-.85-1.55-.35-4.13-.6-6.31s-1.36-3.94-5.3-3.94h-8V512h-1.39Zm9.4,11.07c3.28,0,5.74-1.55,5.74-5.17,0-3.41-2.71-4.7-5.74-4.7h-8v9.87Z" transform="translate(-183.83 -481.05)"/><path class="cls-1" d="M344.08,510.77V512h-15.3V489.45h15.14v1.2H330.18v9h12.93v1.2H330.18v9.9Z" transform="translate(-183.83 -481.05)"/><path class="cls-1" d="M203.48,484.63a16.08,16.08,0,1,0,16.08,16.08A16.1,16.1,0,0,0,203.48,484.63Zm5,9.54.71-.71a1.12,1.12,0,1,1,1.58,1.58l-.71.71a1.12,1.12,0,0,1-1.58-1.58Zm-6.08-2.59a1.12,1.12,0,1,1,2.24,0v1a1.12,1.12,0,0,1-2.24,0Zm-6.13,1.88a1.12,1.12,0,0,1,1.58,0l.71.71a1.12,1.12,0,1,1-1.58,1.58l-.71-.71A1.12,1.12,0,0,1,196.23,493.46Zm-1.89,8.37a1.12,1.12,0,0,1,0-2.24h1a1.12,1.12,0,0,1,0,2.24Zm4.18,5.43-.71.71a1.12,1.12,0,1,1-1.58-1.58l.71-.71a1.12,1.12,0,1,1,1.58,1.58Zm6.08,2.59a1.12,1.12,0,1,1-2.24,0v-1a1.12,1.12,0,1,1,2.24,0Zm-1.12-3.54a5.6,5.6,0,1,1,5.6-5.6A5.6,5.6,0,0,1,203.48,506.31Zm7.25,1.65a1.12,1.12,0,0,1-1.58,0l-.71-.71a1.12,1.12,0,0,1,1.58-1.58l.71.71A1.12,1.12,0,0,1,210.74,508Zm1.89-6.13h-1a1.12,1.12,0,1,1,0-2.24h1a1.12,1.12,0,0,1,0,2.24Z" transform="translate(-183.83 -481.05)"/><circle class="cls-1" cx="19.66" cy="19.66" r="3.36"/><path class="cls-1" d="M203.48,481.05a19.66,19.66,0,1,0,19.66,19.66A19.66,19.66,0,0,0,203.48,481.05Zm0,36.86a17.2,17.2,0,1,1,17.2-17.2A17.22,17.22,0,0,1,203.48,517.91Z" transform="translate(-183.83 -481.05)"/></svg>