<svg id="Calque_1" data-name="Calque 1" xmlns="http://www.w3.org/2000/svg" viewBox="0 0 151.84 39.81"><defs><style>.cls-1{fill:#fff;}</style></defs><title>Opale-pantone-blanc</title><path class="cls-1" d="M245.34,432.28c-6.79,0-10.79-5.24-10.79-11.87s4-11.87,10.79-11.87,10.76,5.24,10.76,11.87S252.1,432.28,245.34,432.28Zm0-1.21c5.9,0,9.36-4.86,9.36-10.66s-3.46-10.66-9.36-10.66-9.39,4.86-9.39,10.66S239.4,431.07,245.34,431.07Z" transform="translate(-183.83 -400.51)"/><path class="cls-1" d="M261.49,409.08h9.65c2.57,0,6.6.92,6.6,6.35,0,4-2.6,6.22-7.11,6.22h-7.74v10.09h-1.4Zm1.4,11.36h8c4.09,0,5.49-2.7,5.49-5,0-1.68-.76-5.11-5.3-5.11h-8.16Z" transform="translate(-183.83 -400.51)"/><path class="cls-1" d="M288.82,409.08l9,22.66h-1.49l-2.86-7.27H282.57l-2.89,7.27h-1.49l9.11-22.66ZM293,423.26l-4.86-12.82h-.06l-5,12.82Z" transform="translate(-183.83 -400.51)"/><path class="cls-1" d="M301.89,409.08h1.4v21.45h12.85v1.21H301.89Z" transform="translate(-183.83 -400.51)"/><path class="cls-1" d="M335.66,430.53v1.21H320.27V409.08h15.23v1.21H321.67v9.08h13v1.21h-13v10Z" transform="translate(-183.83 -400.51)"/><path class="cls-1" d="M203.48,404.12a16.28,16.28,0,1,0,16.08,16.28A16.2,16.2,0,0,0,203.48,404.12Zm-.95,6.87.95-1.54.95,1.54c.67,1.09,4,6.62,4,9a5,5,0,1,1-9.93,0C198.52,417.62,201.86,412.08,202.53,411Zm11.53,17.6a1.11,1.11,0,0,1-1.58,0,3.14,3.14,0,0,0-4.93,0,5.35,5.35,0,0,1-8.15,0,3.15,3.15,0,0,0-4.93,0,1.11,1.11,0,0,1-1.58,0,1.14,1.14,0,0,1,0-1.6,5.35,5.35,0,0,1,8.15,0,3.15,3.15,0,0,0,4.93,0,5.35,5.35,0,0,1,8.15,0A1.14,1.14,0,0,1,214.07,428.6Z" transform="translate(-183.83 -400.51)"/><path class="cls-1" d="M203.48,400.51a19.9,19.9,0,1,0,19.66,19.9A19.78,19.78,0,0,0,203.48,400.51Zm0,37.32a17.42,17.42,0,1,1,17.2-17.42A17.33,17.33,0,0,1,203.48,437.83Z" transform="translate(-183.83 -400.51)"/><path class="cls-1" d="M203.48,422.74a2.75,2.75,0,0,0,2.73-2.76c0-1-1.39-3.82-2.73-6.17-1.34,2.35-2.73,5.16-2.73,6.17A2.75,2.75,0,0,0,203.48,422.74Z" transform="translate(-183.83 -400.51)"/></svg>