<svg id="FR" xmlns="http://www.w3.org/2000/svg" xmlns:xlink="http://www.w3.org/1999/xlink" viewBox="0 0 358.9 372.49"><defs><style>.cls-1{fill:#fff;}.cls-2{isolation:isolate;}.cls-3{clip-path:url(#clip-path);}</style><clipPath id="clip-path" transform="translate(-24.9 -24.72)"><path class="cls-1" d="M185.44,151.33,191.21,171l-7.17,0-7.28,0-7.33,0-7.32,0-14.35,0-13.58,0-12.33,0-10.62,0-7.32-19.47,10.83-.07,12.57-.08,13.84-.09,14.63-.09,7.46,0,7.47,0,7.42,0Z"/></clipPath></defs><title>SEFRI-Vignette-blanc</title><path class="cls-1" d="M53.17,258.65l-6.63,9,8.8-3.4,1.66,4.3-17.5,6.75L38,271.54l6.64-9-8.8,3.4-1.66-4.3,17.5-6.76Z" transform="translate(-24.9 -24.72)"/><path class="cls-1" d="M45.78,240.78a7.57,7.57,0,0,1,2.71,10.13c-1.4,2.42-4,3-6.69,3.75s-5.25,1.49-7.67.09a7.57,7.57,0,0,1-2.71-10.13c1.4-2.42,4-3,6.69-3.75S43.36,239.38,45.78,240.78ZM35,247.17a2.49,2.49,0,0,0,1,3.56c.64.26,1.32.35,4.63-.53s3.83-1.3,4.25-1.85a2.44,2.44,0,0,0-1-3.56c-.64-.26-1.3-.36-4.61.52S35.45,246.62,35,247.17Z" transform="translate(-24.9 -24.72)"/><path class="cls-1" d="M45.71,229c.61,3.85-1.5,7.41-5.56,8l-12,1.9-.72-4.56,11.92-1.88c1.72-.27,2.56-1.36,2.32-2.87a2.44,2.44,0,0,0-3.1-2.07l-11.92,1.88-.72-4.55,12-1.9C42,222.34,45.1,225.13,45.71,229Z" transform="translate(-24.9 -24.72)"/><path class="cls-1" d="M44,213.5c.16,2.87-.24,5.24-2.08,7.24L38.85,218a6.11,6.11,0,0,0,1.08-4.25c-.1-1.81-.75-2.65-1.83-2.59a1.56,1.56,0,0,0-1.08.43,2.08,2.08,0,0,0-.43,1.26l-.19,2.28a6.35,6.35,0,0,1-1.45,3.85,5.19,5.19,0,0,1-3.69,1.5c-3.42.19-6.06-2.25-6.3-6.51-.15-2.68.37-4.74,1.88-6.44l3.06,2.73a4.63,4.63,0,0,0-.91,3.61c.09,1.6,1,2.21,1.86,2.16a1.23,1.23,0,0,0,.85-.42,2.1,2.1,0,0,0,.48-1.32l.19-2.28a6.3,6.3,0,0,1,1.35-3.77,5.47,5.47,0,0,1,4-1.62C41.56,206.39,43.82,209.56,44,213.5Z" transform="translate(-24.9 -24.72)"/><path class="cls-1" d="M29.34,192.5l3.28.24.52-6.94,4.1.3L36.73,193l7.23.54-.34,4.6L24.9,196.79l.95-12.72,4.1.31Z" transform="translate(-24.9 -24.72)"/><path class="cls-1" d="M44.87,171.52a7.57,7.57,0,0,1-1.76,10.33c-2.28,1.62-4.86,1.09-7.64.62s-5.39-.84-7-3.12A7.57,7.57,0,0,1,30.23,169c2.28-1.62,4.86-1.1,7.64-.62S43.26,169.24,44.87,171.52Zm-12.44,1.33a2.49,2.49,0,0,0-.62,3.63c.47.51,1.05.87,4.43,1.45s4,.42,4.63.1a2.44,2.44,0,0,0,.62-3.64c-.48-.51-1-.87-4.4-1.45S33.05,172.53,32.44,172.85Z" transform="translate(-24.9 -24.72)"/><path class="cls-1" d="M50.28,158.11l-7.61,1.33-.41,1.5L49,162.8l-1.23,4.44-18.07-5,2-7.16a6,6,0,0,1,7.52-4.55,5.4,5.4,0,0,1,3.9,4.25L51.71,153Zm-14.69-1.73-.7,2.51,3.65,1,.7-2.51a1.9,1.9,0,1,0-3.65-1Z" transform="translate(-24.9 -24.72)"/><path class="cls-1" d="M57.19,139.17l-8.32-3.4L52.16,140,51,142.72l-5.3.71,8.32,3.4-1.74,4.27L34.95,144l1.71-4.2,9.25-.77-6.06-7,1.71-4.2,17.37,7.1Z" transform="translate(-24.9 -24.72)"/><path class="cls-1" d="M64.54,120.61a7.57,7.57,0,0,1-5.08,9.17c-2.69.78-5-.57-7.42-1.94s-4.81-2.57-5.58-5.26a7.58,7.58,0,0,1,5.08-9.17c2.69-.77,5,.57,7.42,1.94S63.76,117.92,64.54,120.61Zm-12.18-2.86A2.49,2.49,0,0,0,50.57,121c.28.64.7,1.17,3.7,2.83s3.66,1.72,4.34,1.62a2.44,2.44,0,0,0,1.79-3.23c-.28-.64-.68-1.16-3.68-2.82S53,117.65,52.35,117.75Z" transform="translate(-24.9 -24.72)"/><path class="cls-1" d="M74.75,108.83l-11.17-.52,7.71,5.43-2.66,3.77L53.3,106.71l2.32-3.3,11.17.52L59.08,98.5l2.66-3.77,15.34,10.8Z" transform="translate(-24.9 -24.72)"/><path class="cls-1" d="M82.87,99c-1.89,2.16-3.83,3.58-6.54,3.73L76,98.55a6.09,6.09,0,0,0,3.75-2.29c1.2-1.37,1.31-2.42.5-3.13a1.57,1.57,0,0,0-1.08-.45,2.09,2.09,0,0,0-1.19.6l-1.73,1.5a6.33,6.33,0,0,1-3.73,1.75A5.2,5.2,0,0,1,68.87,95c-2.58-2.25-2.77-5.84,0-9.06,1.77-2,3.58-3.14,5.85-3.29L75,86.77a4.64,4.64,0,0,0-3.17,2c-1.05,1.21-.79,2.31-.18,2.85a1.23,1.23,0,0,0,.9.29,2.12,2.12,0,0,0,1.27-.61l1.73-1.5A6.3,6.3,0,0,1,79.17,88a5.46,5.46,0,0,1,4,1.65C86.06,92.16,85.47,96,82.87,99Z" transform="translate(-24.9 -24.72)"/><path class="cls-1" d="M101.05,78.37a7,7,0,0,1-2.59,4.72l-5.23,4.59L80.87,73.58,86.09,69a7,7,0,0,1,5-1.95c3.09.2,4.49,2.16,6.44,4.38S101.25,75.29,101.05,78.37ZM90.93,71.63a2.4,2.4,0,0,0-2.36.67L87,73.63l7,7.92,1.53-1.34a2.39,2.39,0,0,0,1-2.25c-.07-.64-.3-1.1-2.4-3.5S91.55,71.78,90.93,71.63Z" transform="translate(-24.9 -24.72)"/><path class="cls-1" d="M106,76.79,95.07,61.52l10.38-7.4,2.38,3.34-6.63,4.73L103,64.74l5.66-4,2.39,3.35-5.66,4,1.91,2.68L113.95,66l2.39,3.34Z" transform="translate(-24.9 -24.72)"/><path class="cls-1" d="M123.48,65.32c-2.49,1.44-4.78,2.16-7.4,1.42l1.08-4a6.1,6.1,0,0,0,4.29-1c1.57-.91,2-1.87,1.48-2.8a1.56,1.56,0,0,0-.87-.77,2.09,2.09,0,0,0-1.32.19l-2.12.86a6.35,6.35,0,0,1-4.09.45,5.21,5.21,0,0,1-3-2.62c-1.71-3-.73-6.42,3-8.56,2.33-1.34,4.4-1.81,6.59-1.23l-1.06,4a4.64,4.64,0,0,0-3.63.82c-1.39.8-1.5,1.94-1.09,2.64a1.23,1.23,0,0,0,.75.57,2.11,2.11,0,0,0,1.39-.17l2.12-.86a6.32,6.32,0,0,1,4-.5,5.46,5.46,0,0,1,3.27,2.86C128.71,59.89,126.9,63.34,123.48,65.32Z" transform="translate(-24.9 -24.72)"/><path class="cls-1" d="M141.26,48.95,138.65,50l2.57,6.18L137,58l-7.19-17.32,6.86-2.85a6,6,0,1,1,4.62,11.14ZM138,41.7l-2.41,1,1.45,3.5,2.41-1A1.9,1.9,0,1,0,138,41.7Z" transform="translate(-24.9 -24.72)"/><path class="cls-1" d="M161,49.21l-5.18-5.74-1.49.45,2,6.69-4.41,1.32-5.39-18,7.12-2.13a6,6,0,0,1,7.87,3.94A5.4,5.4,0,0,1,160,41.35l6.13,6.33Zm-6.37-13.36-2.5.75,1.09,3.63,2.5-.75a1.9,1.9,0,1,0-1.09-3.63Z" transform="translate(-24.9 -24.72)"/><path class="cls-1" d="M179.27,43.2A7.58,7.58,0,0,1,169,45.14c-2.31-1.58-2.72-4.18-3.24-6.95s-1.09-5.35.49-7.66a7.57,7.57,0,0,1,10.31-1.95c2.31,1.58,2.72,4.18,3.24,6.95S180.84,40.89,179.27,43.2ZM173.69,32a2.49,2.49,0,0,0-3.62.68c-.31.62-.45,1.29.18,4.66s1,3.91,1.52,4.38A2.44,2.44,0,0,0,175.4,41c.31-.62.46-1.27-.18-4.63S174.21,32.46,173.69,32Z" transform="translate(-24.9 -24.72)"/><path class="cls-1" d="M189.59,44.13c-2.86.25-5.24-.07-7.3-1.85l2.68-3.2a6.1,6.1,0,0,0,4.29.95c1.81-.16,2.63-.84,2.53-1.91a1.56,1.56,0,0,0-.46-1.07,2.1,2.1,0,0,0-1.28-.39l-2.28-.12a6.35,6.35,0,0,1-3.9-1.33,5.19,5.19,0,0,1-1.61-3.64c-.3-3.41,2.06-6.13,6.31-6.5,2.68-.23,4.75.22,6.49,1.68l-2.64,3.14a4.63,4.63,0,0,0-3.64-.79c-1.6.14-2.18,1.12-2.11,1.93a1.24,1.24,0,0,0,.44.83,2.11,2.11,0,0,0,1.33.44l2.28.12a6.3,6.3,0,0,1,3.81,1.23,5.46,5.46,0,0,1,1.75,4C196.63,41.43,193.53,43.79,189.59,44.13Z" transform="translate(-24.9 -24.72)"/><path class="cls-1" d="M199,43.37,199,38.63l4.74-.08.08,4.74Z" transform="translate(-24.9 -24.72)"/><path class="cls-1" d="M212.26,43.41l1.66-18.68,12.7,1.13-.37,4.09-8.11-.72-.28,3.12,6.93.62-.36,4.09-6.93-.62-.29,3.28,8.11.72L225,44.54Z" transform="translate(-24.9 -24.72)"/><path class="cls-1" d="M238.23,47l-4-10.45-1.9,9.24-4.51-.93,3.78-18.37,3.95.81,4,10.45,1.9-9.24,4.51.93-3.78,18.37Z" transform="translate(-24.9 -24.72)"/><path class="cls-1" d="M257.5,36.94l-4.25,14-4.41-1.34,4.25-14-4.41-1.34,1.19-3.93,13.24,4-1.19,3.94Z" transform="translate(-24.9 -24.72)"/><path class="cls-1" d="M268.59,56.72,268.2,49l-1.43-.6-2.68,6.45-4.26-1.77L267,35.76l6.86,2.85a6,6,0,0,1,3.6,8,5.4,5.4,0,0,1-4.7,3.36l.75,8.78Zm3.51-14.37-2.41-1-1.45,3.51,2.41,1a1.9,1.9,0,1,0,1.45-3.5Z" transform="translate(-24.9 -24.72)"/><path class="cls-1" d="M275.26,59.71l8.91-16.51,11.22,6.06-2,3.62L286.27,49l-1.49,2.76,6.12,3.3-2,3.62-6.12-3.31-1.57,2.9,7.16,3.87-2,3.62Z" transform="translate(-24.9 -24.72)"/><path class="cls-1" d="M298.83,65.88l-2.33-1.58-3.75,5.54-3.82-2.58,10.51-15.54,6.16,4.16a6,6,0,1,1-6.76,10Zm4.27-6.69-2.16-1.46-2.12,3.14L301,62.34a1.9,1.9,0,1,0,2.13-3.14Z" transform="translate(-24.9 -24.72)"/><path class="cls-1" d="M309.47,82.53,311.41,75l-1.19-1-4.49,5.35-3.53-3,12-14.37,5.7,4.77a6,6,0,0,1,1,8.73,5.39,5.39,0,0,1-5.49,1.79L313.57,86Zm7.66-12.66-2-1.68-2.44,2.91,2,1.68a1.9,1.9,0,1,0,2.44-2.91Z" transform="translate(-24.9 -24.72)"/><path class="cls-1" d="M314.86,87.43,328,74l3.3,3.22L318.16,90.66Z" transform="translate(-24.9 -24.72)"/><path class="cls-1" d="M324,97.14c-1.9-2.15-3.06-4.25-2.86-7l4.16.25a6.1,6.1,0,0,0,1.79,4c1.2,1.36,2.23,1.61,3,.9a1.57,1.57,0,0,0,.58-1,2.09,2.09,0,0,0-.45-1.26L329,91.16a6.33,6.33,0,0,1-1.25-3.92,5.2,5.2,0,0,1,2-3.46c2.56-2.27,6.15-2,9,1.2,1.78,2,2.65,3.95,2.51,6.22l-4.09-.25a4.63,4.63,0,0,0-1.53-3.39c-1.06-1.2-2.19-1.08-2.8-.55a1.23,1.23,0,0,0-.41.85,2.11,2.11,0,0,0,.44,1.33l1.27,1.91a6.3,6.3,0,0,1,1.28,3.79,5.46,5.46,0,0,1-2.15,3.77C330.38,101.19,326.64,100.1,324,97.14Z" transform="translate(-24.9 -24.72)"/><path class="cls-1" d="M330.57,104.54l15.17-11,7.5,10.31-3.32,2.42-4.79-6.58-2.54,1.84,4.09,5.63-3.32,2.42-4.09-5.63-2.67,1.94,4.79,6.59-3.33,2.42Z" transform="translate(-24.9 -24.72)"/><path class="cls-1" d="M357.56,119l-2.89,1.57,3.33,6.11-3.61,2-3.33-6.11L344.7,126l-2.2-4L359,113l6.1,11.2-3.61,2Z" transform="translate(-24.9 -24.72)"/><path class="cls-1" d="M355.89,145a7.57,7.57,0,0,1-4.12-9.64c1-2.59,3.49-3.55,6.09-4.66s5-2.21,7.58-1.17a7.57,7.57,0,0,1,4.12,9.64c-1,2.59-3.49,3.55-6.09,4.66S358.49,146.08,355.89,145Zm9.74-7.85a2.49,2.49,0,0,0-1.45-3.39c-.67-.17-1.36-.16-4.51,1.18s-3.6,1.82-3.94,2.43a2.44,2.44,0,0,0,1.45,3.39c.67.17,1.33.17,4.48-1.17S365.29,137.78,365.63,137.18Z" transform="translate(-24.9 -24.72)"/><path class="cls-1" d="M358.6,159.25l5.69-5.24-.46-1.48-6.67,2.07-1.36-4.4,17.92-5.55,2.2,7.1a6,6,0,0,1-3.87,7.9,5.4,5.4,0,0,1-5.59-1.47l-6.28,6.19Zm13.3-6.49-.77-2.49-3.63,1.12.77,2.49a1.9,1.9,0,1,0,3.62-1.12Z" transform="translate(-24.9 -24.72)"/><path class="cls-1" d="M363,178.91l8.83-1.63-5-1.77-.54-2.9,4.08-3.46-8.83,1.63-.84-4.53,18.44-3.41.82,4.46-7.37,5.65,8.9,2.64.82,4.46-18.45,3.4Z" transform="translate(-24.9 -24.72)"/><path class="cls-1" d="M364.83,197.3l2.73-1-.37-5.75-2.85-.74-.31-4.81,19.15,5.6.23,3.55-18.28,8Zm11.38-4.4-5.1-1.36.21,3.26Z" transform="translate(-24.9 -24.72)"/><path class="cls-1" d="M379.45,210.55l-14.64-.37.12-4.61,14.64.37.12-4.61,4.11.1-.35,13.83-4.11-.1Z" transform="translate(-24.9 -24.72)"/><path class="cls-1" d="M363.33,226.49l7.34-2.43.19-1.54-6.93-.87.57-4.57,18.61,2.32-.92,7.37a6,6,0,0,1-6.78,5.6,5.39,5.39,0,0,1-4.48-3.64l-8.27,3.06Zm14.79-.44.32-2.59-3.77-.47-.32,2.59a1.9,1.9,0,1,0,3.77.47Z" transform="translate(-24.9 -24.72)"/><path class="cls-1" d="M362.14,233.7l18.37,3.78-.93,4.52-18.37-3.78Z" transform="translate(-24.9 -24.72)"/><path class="cls-1" d="M358.64,247.77a7,7,0,0,1,3.44-4.46c2.44-1.37,5-.58,7.66.18s5.27,1.4,6.64,3.83a7,7,0,0,1,.62,5.59,6.79,6.79,0,0,1-7.81,5.2l1.26-4.52a2.33,2.33,0,0,0,2.58-1.77,2.24,2.24,0,0,0-.27-2c-.42-.56-1-1-4.27-1.94s-4-.82-4.66-.56a2.23,2.23,0,0,0-1.25,1.53,2.32,2.32,0,0,0,1.28,2.85l-1.27,4.51A6.79,6.79,0,0,1,358.64,247.77Z" transform="translate(-24.9 -24.72)"/><path class="cls-1" d="M356.18,256.56l17.49,6.79-4.61,11.89-3.83-1.49,2.95-7.59L365.25,265l-2.52,6.48L358.9,270l2.52-6.49-3.07-1.19-2.95,7.59-3.83-1.49Z" transform="translate(-24.9 -24.72)"/><g class="cls-2"><path class="cls-1" d="M185.44,151.33,191.21,171l-7.17,0-7.28,0-7.33,0-7.32,0-14.35,0-13.58,0-12.33,0-10.62,0-7.32-19.47,10.83-.07,12.57-.08,13.84-.09,14.63-.09,7.46,0,7.47,0,7.42,0Z" transform="translate(-24.9 -24.72)"/><g class="cls-3"><g class="cls-2"><path class="cls-1" d="M185.44,151.33,191.21,171l-7.17,0-7.28,0-7.33,0-7.32,0-14.35,0-13.58,0-12.33,0-10.62,0-7.32-19.47,10.83-.07,12.57-.08,13.84-.09,14.63-.09,7.46,0,7.47,0,7.42,0,7.31,0" transform="translate(-24.9 -24.72)"/></g></g></g><polygon class="cls-1" points="266.6 78.62 270.23 99.14 261.06 204.67 257.04 185.33 266.6 78.62"/><polygon class="cls-1" points="91.27 246.16 98.78 264.32 62.05 225.38 53.96 206.85 91.27 246.16"/><polygon class="cls-1" points="199.53 163.05 204.65 182.48 98.78 264.32 91.27 246.16 199.53 163.05"/><path class="cls-1" d="M288.2,103.48,286,127.91l-2.33,25.58L281.22,180l-2.47,27.1L263,219.41l-15.66,12.24-14.94,11.68L218.75,254l1.46-12.54,2.06-17.63,2.45-21,2.65-22.69-29.58,22.68-28.26,21.66-27.18,20.84L116,265.49l-8.5-8.93-8.72-9.16-8.62-9.06L81.9,229.7l26-19.56L134.67,190l27.87-21,29.18-22-11.12.08-9.37.07-8.19.06-7.57.05-14.54.1-13.15.09-10.68.07-7.15.05L123,138l14.3-10.58,15-11.1,15.14-11.19,30.05-.4,30.39-.41,30.36-.41Z" transform="translate(-24.9 -24.72)"/><polygon class="cls-1" points="257.04 185.33 261.06 204.67 196.28 255.71 190.81 237.18 257.04 185.33"/><path class="cls-1" d="M89,318.48v1.59h3.36v2H89v3.5H86.76V316.5h6.17v2Z" transform="translate(-24.9 -24.72)"/><path class="cls-1" d="M99.8,324.63a3.67,3.67,0,0,1-5.07,0c-1-1-.92-2.23-.92-3.59s0-2.64.92-3.59a3.67,3.67,0,0,1,5.07,0c1,1,.92,2.23.92,3.59S100.75,323.67,99.8,324.63Zm-1.64-5.82a1.21,1.21,0,0,0-1.78,0c-.2.27-.33.57-.33,2.23s.13,2,.33,2.22a1.18,1.18,0,0,0,1.78,0c.2-.27.33-.56.33-2.22S98.36,319.07,98.16,318.8Z" transform="translate(-24.9 -24.72)"/><path class="cls-1" d="M106.85,325.57l-1.6-3.38h-.75v3.38h-2.23V316.5h3.59a2.9,2.9,0,0,1,3.1,2.92,2.61,2.61,0,0,1-1.48,2.37l2,3.78Zm-1.09-7.07h-1.26v1.83h1.26a.92.92,0,1,0,0-1.83Z" transform="translate(-24.9 -24.72)"/><path class="cls-1" d="M116.8,325.57v-4.35l-1.29,2.24h-1.43l-1.29-2.24v4.35h-2.23V316.5h2.19l2,4,2-4H119v9.07Z" transform="translate(-24.9 -24.72)"/><path class="cls-1" d="M125.94,325.57l-.42-1.35h-2.79l-.45,1.35h-2.33l3.3-9.07H125l3.3,9.07Zm-1.77-5.63-.82,2.42h1.58Z" transform="translate(-24.9 -24.72)"/><path class="cls-1" d="M132.35,318.48v7.09h-2.23v-7.09h-2.23v-2h6.69v2Z" transform="translate(-24.9 -24.72)"/><path class="cls-1" d="M135.88,325.57V316.5h2.23v9.07Z" transform="translate(-24.9 -24.72)"/><path class="cls-1" d="M145.64,324.63a3.66,3.66,0,0,1-5.07,0c-1-1-.92-2.23-.92-3.59s0-2.64.92-3.59a3.66,3.66,0,0,1,5.07,0c1,1,.92,2.23.92,3.59S146.59,323.67,145.64,324.63ZM144,318.8a1.2,1.2,0,0,0-1.78,0c-.21.27-.33.57-.33,2.23s.13,2,.33,2.22a1.18,1.18,0,0,0,1.78,0c.2-.27.33-.56.33-2.22S144.2,319.07,144,318.8Z" transform="translate(-24.9 -24.72)"/><path class="cls-1" d="M153.23,325.57l-2.9-4.56v4.56H148.1V316.5H150l2.91,4.56V316.5h2.23v9.07Z" transform="translate(-24.9 -24.72)"/><path class="cls-1" d="M160.61,322.33h-1.36v3.24H157V316.5h3.59a2.92,2.92,0,1,1,0,5.84Zm-.1-3.84h-1.26v1.83h1.26a.92.92,0,1,0,0-1.83Z" transform="translate(-24.9 -24.72)"/><path class="cls-1" d="M169.6,325.57,168,322.19h-.75v3.38H165V316.5h3.59a2.9,2.9,0,0,1,3.1,2.92,2.61,2.61,0,0,1-1.48,2.37l2,3.78Zm-1.09-7.07h-1.26v1.83h1.26a.92.92,0,1,0,0-1.83Z" transform="translate(-24.9 -24.72)"/><path class="cls-1" d="M179,324.63a3.66,3.66,0,0,1-5.07,0c-1-1-.92-2.23-.92-3.59s0-2.64.92-3.59a3.66,3.66,0,0,1,5.07,0c1,1,.92,2.23.92,3.59S180,323.67,179,324.63Zm-1.65-5.82a1.2,1.2,0,0,0-1.78,0c-.2.27-.33.57-.33,2.23s.13,2,.33,2.22a1.18,1.18,0,0,0,1.78,0c.21-.27.33-.56.33-2.22S177.57,319.07,177.37,318.8Z" transform="translate(-24.9 -24.72)"/><path class="cls-1" d="M183.7,318.48v1.59h3.36v2H183.7v3.5h-2.23V316.5h6.17v2Z" transform="translate(-24.9 -24.72)"/><path class="cls-1" d="M189.07,325.57V316.5h6.17v2H191.3V320h3.36v2H191.3v1.59h3.94v2Z" transform="translate(-24.9 -24.72)"/><path class="cls-1" d="M199.4,325.65a4.43,4.43,0,0,1-3.44-1.2l1.43-1.43a2.94,2.94,0,0,0,2,.64c.88,0,1.3-.29,1.3-.82a.76.76,0,0,0-.18-.54,1,1,0,0,0-.6-.24l-1.1-.15a3.07,3.07,0,0,1-1.82-.8,2.52,2.52,0,0,1-.62-1.82c0-1.66,1.25-2.87,3.31-2.87a4,4,0,0,1,3.06,1.08l-1.4,1.4a2.25,2.25,0,0,0-1.72-.54c-.78,0-1.1.45-1.1.84a.6.6,0,0,0,.18.42,1,1,0,0,0,.63.27l1.1.15a3.05,3.05,0,0,1,1.78.75,2.64,2.64,0,0,1,.67,2C202.91,324.64,201.31,325.65,199.4,325.65Z" transform="translate(-24.9 -24.72)"/><path class="cls-1" d="M207,325.65a4.43,4.43,0,0,1-3.44-1.2l1.43-1.43a2.94,2.94,0,0,0,2,.64c.88,0,1.3-.29,1.3-.82a.76.76,0,0,0-.18-.54,1,1,0,0,0-.6-.24l-1.1-.15a3.07,3.07,0,0,1-1.82-.8,2.51,2.51,0,0,1-.62-1.82c0-1.66,1.25-2.87,3.31-2.87a4,4,0,0,1,3.06,1.08l-1.4,1.4a2.25,2.25,0,0,0-1.72-.54c-.78,0-1.1.45-1.1.84a.6.6,0,0,0,.18.42,1,1,0,0,0,.63.27l1.1.15a3.06,3.06,0,0,1,1.78.75,2.63,2.63,0,0,1,.67,2C210.46,324.64,208.87,325.65,207,325.65Z" transform="translate(-24.9 -24.72)"/><path class="cls-1" d="M211.93,325.57V316.5h2.23v9.07Z" transform="translate(-24.9 -24.72)"/><path class="cls-1" d="M221.69,324.63a3.66,3.66,0,0,1-5.07,0c-1-1-.92-2.23-.92-3.59s0-2.64.92-3.59a3.66,3.66,0,0,1,5.07,0c1,1,.92,2.23.92,3.59S222.65,323.67,221.69,324.63ZM220,318.8a1.21,1.21,0,0,0-1.78,0c-.2.27-.33.57-.33,2.23s.13,2,.33,2.22a1.18,1.18,0,0,0,1.78,0c.2-.27.33-.56.33-2.22S220.25,319.07,220,318.8Z" transform="translate(-24.9 -24.72)"/><path class="cls-1" d="M229.29,325.57,226.38,321v4.56h-2.23V316.5h2l2.91,4.56V316.5h2.23v9.07Z" transform="translate(-24.9 -24.72)"/><path class="cls-1" d="M238.21,325.57,235.3,321v4.56h-2.23V316.5H235l2.91,4.56V316.5h2.23v9.07Z" transform="translate(-24.9 -24.72)"/><path class="cls-1" d="M242,325.57V316.5h6.17v2h-3.94V320h3.36v2h-3.36v1.59h3.94v2Z" transform="translate(-24.9 -24.72)"/><path class="cls-1" d="M249.74,325.57V316.5H252v7.09h3.81v2Z" transform="translate(-24.9 -24.72)"/><path class="cls-1" d="M257.08,325.57V316.5h2.23v7.09h3.81v2Z" transform="translate(-24.9 -24.72)"/><path class="cls-1" d="M264.42,325.57V316.5h6.17v2h-3.94V320H270v2h-3.36v1.59h3.94v2Z" transform="translate(-24.9 -24.72)"/><path class="cls-1" d="M275.76,322.33H274.4v3.24h-2.23V316.5h3.59a2.92,2.92,0,1,1,0,5.84Zm-.1-3.84H274.4v1.83h1.26a.92.92,0,1,0,0-1.83Z" transform="translate(-24.9 -24.72)"/><path class="cls-1" d="M280.16,325.57V316.5h2.23v7.09h3.81v2Z" transform="translate(-24.9 -24.72)"/><path class="cls-1" d="M290.77,325.65a3.24,3.24,0,0,1-3.43-3.26V316.5h2.23v5.84a1.16,1.16,0,0,0,1.2,1.33,1.18,1.18,0,0,0,1.22-1.33V316.5h2.23v5.89A3.26,3.26,0,0,1,290.77,325.65Z" transform="translate(-24.9 -24.72)"/><path class="cls-1" d="M298.5,325.65a4.43,4.43,0,0,1-3.44-1.2l1.43-1.43a2.94,2.94,0,0,0,2,.64c.88,0,1.3-.29,1.3-.82a.76.76,0,0,0-.18-.54,1,1,0,0,0-.6-.24l-1.09-.15a3.07,3.07,0,0,1-1.82-.8,2.51,2.51,0,0,1-.62-1.82c0-1.66,1.25-2.87,3.31-2.87a4,4,0,0,1,3.06,1.08l-1.4,1.4a2.24,2.24,0,0,0-1.72-.54c-.78,0-1.1.45-1.1.84a.59.59,0,0,0,.18.42,1,1,0,0,0,.63.27l1.1.15a3.06,3.06,0,0,1,1.78.75,2.64,2.64,0,0,1,.68,2C302,324.64,300.41,325.65,298.5,325.65Z" transform="translate(-24.9 -24.72)"/><path class="cls-1" d="M304.51,325.61a1.34,1.34,0,1,1,1.34-1.34A1.34,1.34,0,0,1,304.51,325.61Z" transform="translate(-24.9 -24.72)"/><path class="cls-1" d="M310.54,325.65a3.38,3.38,0,0,1-2.52-1c-1-1-.92-2.23-.92-3.59s0-2.64.92-3.59a3.38,3.38,0,0,1,2.52-1,3.23,3.23,0,0,1,2.51,1l-1.48,1.48a1.29,1.29,0,0,0-1-.5,1.06,1.06,0,0,0-.87.38c-.2.27-.34.59-.34,2.24s.14,2,.34,2.24a1.06,1.06,0,0,0,.87.38,1.29,1.29,0,0,0,1-.5l1.48,1.48A3.23,3.23,0,0,1,310.54,325.65Z" transform="translate(-24.9 -24.72)"/><path class="cls-1" d="M319,325.57V322h-2.37v3.59h-2.23V316.5h2.23V320H319V316.5h2.23v9.07Z" transform="translate(-24.9 -24.72)"/><path class="cls-1" d="M88,336a2.46,2.46,0,0,1-1.91-.69l.66-.66a1.72,1.72,0,0,0,1.27.44c.6,0,.93-.23.93-.65a.58.58,0,0,0-.16-.44.77.77,0,0,0-.46-.18l-.63-.09a1.77,1.77,0,0,1-1-.43,1.39,1.39,0,0,1-.38-1,1.62,1.62,0,0,1,1.83-1.59,2.24,2.24,0,0,1,1.69.61l-.65.64a1.46,1.46,0,0,0-1.08-.36c-.54,0-.81.3-.81.66a.51.51,0,0,0,.16.38.89.89,0,0,0,.49.21l.62.09a1.72,1.72,0,0,1,1,.4,1.47,1.47,0,0,1,.41,1.11C89.92,335.46,89.07,336,88,336Z" transform="translate(-24.9 -24.72)"/><path class="cls-1" d="M91.58,334.37a.79.79,0,0,0,.84.85,1.06,1.06,0,0,0,.87-.36l.58.57a1.83,1.83,0,0,1-1.46.6c-.91,0-1.78-.41-1.78-2,0-1.25.68-2,1.67-2A1.65,1.65,0,0,1,94,333.94v.43Zm1.37-1.07a.72.72,0,0,0-1.28,0,1,1,0,0,0-.09.41H93A1.09,1.09,0,0,0,92.95,333.3Z" transform="translate(-24.9 -24.72)"/><path class="cls-1" d="M96.4,336c-.77,0-1.72-.41-1.72-2s.95-2,1.72-2a1.63,1.63,0,0,1,1.27.51l-.65.65a.78.78,0,0,0-.62-.3.66.66,0,0,0-.55.25,1.31,1.31,0,0,0-.21.85,1.33,1.33,0,0,0,.21.86.67.67,0,0,0,.55.25.77.77,0,0,0,.62-.3l.65.64A1.64,1.64,0,0,1,96.4,336Z" transform="translate(-24.9 -24.72)"/><path class="cls-1" d="M100.51,333.2a.64.64,0,0,0-1.13.48V336h-1v-3.84h.94v.37a1.29,1.29,0,0,1,1-.41,1.16,1.16,0,0,1,.91.36Z" transform="translate(-24.9 -24.72)"/><path class="cls-1" d="M102.31,334.37a.79.79,0,0,0,.84.85,1.07,1.07,0,0,0,.87-.36l.58.57a1.83,1.83,0,0,1-1.46.6c-.91,0-1.78-.41-1.78-2,0-1.25.68-2,1.67-2a1.65,1.65,0,0,1,1.67,1.83v.43Zm1.37-1.07a.72.72,0,0,0-1.28,0,1.09,1.09,0,0,0-.09.41h1.46A1.06,1.06,0,0,0,103.68,333.3Zm-.38-1.76h-.64l.47-1.25h1Z" transform="translate(-24.9 -24.72)"/><path class="cls-1" d="M106.81,336a1,1,0,0,1-1.11-1.1V333h-.4v-.73h.4v-1.13h1v1.13h.68V333h-.68v1.84c0,.22.1.35.33.35h.35V336Z" transform="translate(-24.9 -24.72)"/><path class="cls-1" d="M110.16,336v-.33a1.16,1.16,0,0,1-.94.37,1.3,1.3,0,0,1-1-.34,1.23,1.23,0,0,1-.32-.86c0-.61.42-1.11,1.31-1.11h.91v-.19c0-.42-.21-.6-.71-.6a.82.82,0,0,0-.74.32l-.61-.6a1.62,1.62,0,0,1,1.39-.53c1.07,0,1.63.46,1.63,1.35V336Zm0-1.62h-.76c-.35,0-.54.16-.54.43s.18.44.55.44a.76.76,0,0,0,.6-.18.63.63,0,0,0,.14-.49Z" transform="translate(-24.9 -24.72)"/><path class="cls-1" d="M114.23,333.2a.64.64,0,0,0-1.12.48V336h-1v-3.84h.94v.37a1.29,1.29,0,0,1,1-.41,1.15,1.15,0,0,1,.9.36Z" transform="translate(-24.9 -24.72)"/><path class="cls-1" d="M115.5,331.5v-.78h1v.78Zm0,4.49v-3.84h1V336Z" transform="translate(-24.9 -24.72)"/><path class="cls-1" d="M119.52,336v-.33a1.16,1.16,0,0,1-.94.37,1.3,1.3,0,0,1-1-.34,1.23,1.23,0,0,1-.32-.86c0-.61.42-1.11,1.31-1.11h.9v-.19c0-.42-.2-.6-.71-.6a.83.83,0,0,0-.74.32l-.61-.6a1.61,1.61,0,0,1,1.39-.53c1.08,0,1.63.46,1.63,1.35V336Zm0-1.62h-.76c-.35,0-.54.16-.54.43s.18.44.55.44a.76.76,0,0,0,.61-.18.64.64,0,0,0,.14-.49Z" transform="translate(-24.9 -24.72)"/><path class="cls-1" d="M122.7,336a1,1,0,0,1-1.11-1.1V333h-.41v-.73h.41v-1.13h1v1.13h.68V333h-.68v1.84c0,.22.1.35.33.35h.35V336Z" transform="translate(-24.9 -24.72)"/><path class="cls-1" d="M127.95,336v-.36a1.15,1.15,0,0,1-.95.41,1.36,1.36,0,0,1-.94-.35,2.3,2.3,0,0,1-.39-1.62,2.27,2.27,0,0,1,.39-1.61,1.34,1.34,0,0,1,.94-.35,1.15,1.15,0,0,1,.93.38v-1.75h1V336Zm-.68-3c-.57,0-.65.47-.65,1.1s.07,1.11.65,1.11.66-.48.66-1.11S127.85,333,127.27,333Z" transform="translate(-24.9 -24.72)"/><path class="cls-1" d="M129.94,332.42v-1.67h1v.91Z" transform="translate(-24.9 -24.72)"/><path class="cls-1" d="M132.07,336v-5.25h3.45v.91H133.1v1.23h2.07v.91H133.1v1.28h2.43V336Z" transform="translate(-24.9 -24.72)"/><path class="cls-1" d="M137.67,336a1,1,0,0,1-1.11-1.1V333h-.41v-.73h.41v-1.13h1v1.13h.68V333h-.68v1.84c0,.22.1.35.33.35h.35V336Z" transform="translate(-24.9 -24.72)"/><path class="cls-1" d="M141,336v-.33a1.16,1.16,0,0,1-.94.37,1.3,1.3,0,0,1-1-.34,1.23,1.23,0,0,1-.32-.86c0-.61.42-1.11,1.31-1.11h.9v-.19c0-.42-.21-.6-.71-.6a.82.82,0,0,0-.74.32l-.61-.6a1.61,1.61,0,0,1,1.38-.53c1.08,0,1.64.46,1.64,1.35V336Zm0-1.62h-.76c-.35,0-.54.16-.54.43s.18.44.55.44a.76.76,0,0,0,.61-.18.64.64,0,0,0,.14-.49Z" transform="translate(-24.9 -24.72)"/><path class="cls-1" d="M144.2,336a1,1,0,0,1-1.11-1.1V333h-.41v-.73h.41v-1.13h1v1.13h.68V333H144v1.84c0,.22.1.35.33.35h.35V336Z" transform="translate(-24.9 -24.72)"/><path class="cls-1" d="M149.3,336v-.33a1.16,1.16,0,0,1-.94.37,1.3,1.3,0,0,1-1-.34,1.23,1.23,0,0,1-.32-.86c0-.61.42-1.11,1.31-1.11h.91v-.19c0-.42-.21-.6-.71-.6a.82.82,0,0,0-.74.32l-.61-.6a1.62,1.62,0,0,1,1.38-.53c1.08,0,1.64.46,1.64,1.35V336Zm-.82-4.45-.84-1.25h1l.47,1.25Zm.8,2.83h-.76c-.35,0-.54.16-.54.43s.18.44.55.44a.76.76,0,0,0,.6-.18.64.64,0,0,0,.14-.49Z" transform="translate(-24.9 -24.72)"/><path class="cls-1" d="M154.08,336a1,1,0,0,1-1.12-1.1v-4.15h1v4.09c0,.23.1.35.34.35h.37V336Z" transform="translate(-24.9 -24.72)"/><path class="cls-1" d="M157.38,336v-.33a1.16,1.16,0,0,1-.94.37,1.3,1.3,0,0,1-1-.34,1.23,1.23,0,0,1-.32-.86c0-.61.42-1.11,1.31-1.11h.91v-.19c0-.42-.21-.6-.71-.6a.82.82,0,0,0-.74.32l-.61-.6a1.61,1.61,0,0,1,1.38-.53c1.08,0,1.63.46,1.63,1.35V336Zm0-1.62h-.76c-.35,0-.54.16-.54.43s.17.44.55.44a.76.76,0,0,0,.6-.18.63.63,0,0,0,.14-.49Z" transform="translate(-24.9 -24.72)"/><path class="cls-1" d="M162.16,333v3h-1v-3h-.4v-.73h.4v-.48a1,1,0,0,1,1.12-1.1h.54v.81h-.38c-.23,0-.33.13-.33.35v.42h.71V333Z" transform="translate(-24.9 -24.72)"/><path class="cls-1" d="M166.15,335.56A1.59,1.59,0,0,1,165,336a1.57,1.57,0,0,1-1.19-.47,2.77,2.77,0,0,1,0-3,1.57,1.57,0,0,1,1.19-.47,1.59,1.59,0,0,1,1.19.47,2.77,2.77,0,0,1,0,3Zm-.74-2.42A.61.61,0,0,0,165,333a.59.59,0,0,0-.44.17,1.3,1.3,0,0,0-.22.93,1.31,1.31,0,0,0,.22.94.59.59,0,0,0,.44.17.61.61,0,0,0,.45-.17,1.32,1.32,0,0,0,.22-.94A1.3,1.3,0,0,0,165.4,333.14Z" transform="translate(-24.9 -24.72)"/><path class="cls-1" d="M169.59,333.2a.64.64,0,0,0-1.13.48V336h-1v-3.84h.94v.37a1.3,1.3,0,0,1,1-.41,1.15,1.15,0,0,1,.91.36Z" transform="translate(-24.9 -24.72)"/><path class="cls-1" d="M175.34,336v-2.32a.64.64,0,1,0-1.28,0V336h-1v-2.32a.64.64,0,1,0-1.28,0V336h-1v-3.84h.93v.35a1.34,1.34,0,0,1,1-.4,1.19,1.19,0,0,1,1,.49,1.46,1.46,0,0,1,1.15-.49,1.34,1.34,0,0,1,.94.34,1.44,1.44,0,0,1,.42,1.09V336Z" transform="translate(-24.9 -24.72)"/><path class="cls-1" d="M179.31,336v-.33a1.16,1.16,0,0,1-.94.37,1.3,1.3,0,0,1-1-.34,1.23,1.23,0,0,1-.32-.86c0-.61.42-1.11,1.31-1.11h.9v-.19c0-.42-.21-.6-.71-.6a.82.82,0,0,0-.74.32l-.61-.6a1.61,1.61,0,0,1,1.38-.53c1.08,0,1.64.46,1.64,1.35V336Zm0-1.62h-.76c-.35,0-.54.16-.54.43s.18.44.55.44a.76.76,0,0,0,.6-.18.63.63,0,0,0,.14-.49Z" transform="translate(-24.9 -24.72)"/><path class="cls-1" d="M182.49,336a1,1,0,0,1-1.11-1.1V333H181v-.73h.41v-1.13h1v1.13H183V333h-.68v1.84c0,.22.1.35.33.35H183V336Z" transform="translate(-24.9 -24.72)"/><path class="cls-1" d="M183.88,331.5v-.78h1v.78Zm0,4.49v-3.84h1V336Z" transform="translate(-24.9 -24.72)"/><path class="cls-1" d="M188.59,335.56a1.74,1.74,0,0,1-2.38,0,2.78,2.78,0,0,1,0-3,1.74,1.74,0,0,1,2.38,0,2.78,2.78,0,0,1,0,3Zm-.74-2.42a.6.6,0,0,0-.45-.17.59.59,0,0,0-.44.17,1.29,1.29,0,0,0-.22.93,1.31,1.31,0,0,0,.22.94.59.59,0,0,0,.44.17.6.6,0,0,0,.45-.17,1.31,1.31,0,0,0,.22-.94A1.3,1.3,0,0,0,187.84,333.14Z" transform="translate(-24.9 -24.72)"/><path class="cls-1" d="M192.18,336v-2.32a.64.64,0,1,0-1.28,0V336h-1v-3.84h.93v.35a1.32,1.32,0,0,1,1-.4,1.25,1.25,0,0,1,.91.34,1.43,1.43,0,0,1,.39,1.09V336Z" transform="translate(-24.9 -24.72)"/><path class="cls-1" d="M194.15,337.21v-2.26h1.05v1.45Z" transform="translate(-24.9 -24.72)"/><path class="cls-1" d="M199.94,336v-.33a1.16,1.16,0,0,1-.94.37,1.31,1.31,0,0,1-1-.34,1.23,1.23,0,0,1-.32-.86c0-.61.42-1.11,1.31-1.11h.91v-.19c0-.42-.21-.6-.72-.6a.82.82,0,0,0-.74.32l-.61-.6a1.62,1.62,0,0,1,1.38-.53c1.08,0,1.63.46,1.63,1.35V336Zm-.82-4.45-.84-1.25h1l.47,1.25Zm.8,2.83h-.76c-.35,0-.54.16-.54.43s.18.44.55.44a.76.76,0,0,0,.6-.18.63.63,0,0,0,.14-.49Z" transform="translate(-24.9 -24.72)"/><path class="cls-1" d="M204.73,336a1,1,0,0,1-1.12-1.1v-4.15h1v4.09c0,.23.1.35.34.35h.37V336Z" transform="translate(-24.9 -24.72)"/><path class="cls-1" d="M208,336v-.33a1.17,1.17,0,0,1-.94.37,1.31,1.31,0,0,1-1-.34,1.23,1.23,0,0,1-.32-.86c0-.61.42-1.11,1.31-1.11h.9v-.19c0-.42-.2-.6-.71-.6a.82.82,0,0,0-.74.32l-.61-.6a1.61,1.61,0,0,1,1.38-.53c1.08,0,1.63.46,1.63,1.35V336Zm0-1.62h-.76c-.35,0-.54.16-.54.43s.18.44.55.44a.76.76,0,0,0,.6-.18.63.63,0,0,0,.14-.49Z" transform="translate(-24.9 -24.72)"/><path class="cls-1" d="M213.81,333.2a.64.64,0,0,0-1.13.48V336h-1v-3.84h.94v.37a1.3,1.3,0,0,1,1-.41,1.15,1.15,0,0,1,.91.36Z" transform="translate(-24.9 -24.72)"/><path class="cls-1" d="M215.62,334.37a.79.79,0,0,0,.84.85,1.06,1.06,0,0,0,.87-.36l.58.57a1.83,1.83,0,0,1-1.46.6c-.91,0-1.78-.41-1.78-2,0-1.25.68-2,1.67-2a1.65,1.65,0,0,1,1.67,1.83v.43ZM217,333.3a.72.72,0,0,0-1.28,0,1.09,1.09,0,0,0-.09.41h1.46A1,1,0,0,0,217,333.3Z" transform="translate(-24.9 -24.72)"/><path class="cls-1" d="M220.44,336c-.77,0-1.72-.41-1.72-2s1-2,1.72-2a1.64,1.64,0,0,1,1.27.51l-.65.65a.77.77,0,0,0-.62-.3.66.66,0,0,0-.54.25,1.3,1.3,0,0,0-.21.85,1.32,1.32,0,0,0,.21.86.66.66,0,0,0,.54.25.77.77,0,0,0,.62-.3l.65.64A1.65,1.65,0,0,1,220.44,336Z" transform="translate(-24.9 -24.72)"/><path class="cls-1" d="M224.67,336v-2.34a.63.63,0,1,0-1.25,0V336h-1v-5.25h1v1.76a1.27,1.27,0,0,1,.92-.4,1.25,1.25,0,0,1,1.28,1.4V336Z" transform="translate(-24.9 -24.72)"/><path class="cls-1" d="M227.42,334.37a.79.79,0,0,0,.84.85,1.06,1.06,0,0,0,.87-.36l.58.57a1.83,1.83,0,0,1-1.46.6c-.91,0-1.78-.41-1.78-2,0-1.25.68-2,1.67-2a1.65,1.65,0,0,1,1.67,1.83v.43Zm1.37-1.07a.72.72,0,0,0-1.28,0,1.05,1.05,0,0,0-.09.41h1.46A1.05,1.05,0,0,0,228.79,333.3Z" transform="translate(-24.9 -24.72)"/><path class="cls-1" d="M232.81,333.2a.64.64,0,0,0-1.13.48V336h-1v-3.84h.93v.37a1.3,1.3,0,0,1,1-.41,1.16,1.16,0,0,1,.91.36Z" transform="translate(-24.9 -24.72)"/><path class="cls-1" d="M235.38,336c-.77,0-1.72-.41-1.72-2s1-2,1.72-2a1.64,1.64,0,0,1,1.27.51l-.65.65a.77.77,0,0,0-.62-.3.66.66,0,0,0-.54.25,1.3,1.3,0,0,0-.21.85,1.33,1.33,0,0,0,.21.86.67.67,0,0,0,.54.25.77.77,0,0,0,.62-.3l.65.64A1.65,1.65,0,0,1,235.38,336Z" transform="translate(-24.9 -24.72)"/><path class="cls-1" d="M239.61,336v-2.34a.63.63,0,1,0-1.25,0V336h-1v-5.25h1v1.76a1.27,1.27,0,0,1,.92-.4,1.25,1.25,0,0,1,1.28,1.4V336Z" transform="translate(-24.9 -24.72)"/><path class="cls-1" d="M242.36,334.37a.79.79,0,0,0,.84.85,1.06,1.06,0,0,0,.87-.36l.58.57a1.83,1.83,0,0,1-1.46.6c-.91,0-1.77-.41-1.77-2,0-1.25.68-2,1.67-2a1.65,1.65,0,0,1,1.67,1.83v.43Zm1.37-1.07a.72.72,0,0,0-1.28,0,1.05,1.05,0,0,0-.09.41h1.46A1.05,1.05,0,0,0,243.73,333.3Z" transform="translate(-24.9 -24.72)"/><path class="cls-1" d="M248.14,334.37a.79.79,0,0,0,.84.85,1.06,1.06,0,0,0,.87-.36l.58.57a1.83,1.83,0,0,1-1.46.6c-.91,0-1.78-.41-1.78-2,0-1.25.68-2,1.67-2a1.65,1.65,0,0,1,1.67,1.83v.43Zm1.37-1.07a.72.72,0,0,0-1.28,0,1.07,1.07,0,0,0-.09.41h1.46A1,1,0,0,0,249.51,333.3Z" transform="translate(-24.9 -24.72)"/><path class="cls-1" d="M252.64,336a1,1,0,0,1-1.11-1.1V333h-.4v-.73h.4v-1.13h1v1.13h.68V333h-.68v1.84c0,.22.1.35.33.35h.35V336Z" transform="translate(-24.9 -24.72)"/><path class="cls-1" d="M257.73,336v-.33a1.17,1.17,0,0,1-.94.37,1.31,1.31,0,0,1-1-.34,1.23,1.23,0,0,1-.32-.86c0-.61.42-1.11,1.31-1.11h.91v-.19c0-.42-.2-.6-.71-.6a.82.82,0,0,0-.74.32l-.61-.6a1.61,1.61,0,0,1,1.39-.53c1.08,0,1.63.46,1.63,1.35V336Zm-.82-4.45-.84-1.25h1l.47,1.25Zm.79,2.83H257c-.35,0-.54.16-.54.43s.18.44.55.44a.76.76,0,0,0,.6-.18.63.63,0,0,0,.14-.49Z" transform="translate(-24.9 -24.72)"/><path class="cls-1" d="M262.52,336a1,1,0,0,1-1.12-1.1v-4.15h1v4.09c0,.23.09.35.34.35h.37V336Z" transform="translate(-24.9 -24.72)"/><path class="cls-1" d="M263.37,332.42v-1.67h1v.91Z" transform="translate(-24.9 -24.72)"/><path class="cls-1" d="M265.42,331.5v-.78h1v.78Zm0,4.49v-3.84h1V336Z" transform="translate(-24.9 -24.72)"/><path class="cls-1" d="M269.7,336v-2.32a.64.64,0,1,0-1.27,0V336h-1v-3.84h.93v.35a1.32,1.32,0,0,1,1-.4,1.24,1.24,0,0,1,.91.34,1.42,1.42,0,0,1,.39,1.09V336Z" transform="translate(-24.9 -24.72)"/><path class="cls-1" d="M273.94,336v-2.32a.64.64,0,1,0-1.27,0V336h-1v-3.84h.94v.35a1.31,1.31,0,0,1,1-.4,1.24,1.24,0,0,1,.91.34,1.42,1.42,0,0,1,.39,1.09V336Z" transform="translate(-24.9 -24.72)"/><path class="cls-1" d="M278.59,335.56a1.59,1.59,0,0,1-1.19.47,1.58,1.58,0,0,1-1.19-.47,2.78,2.78,0,0,1,0-3,1.58,1.58,0,0,1,1.19-.47,1.59,1.59,0,0,1,1.19.47,2.77,2.77,0,0,1,0,3Zm-.74-2.42a.61.61,0,0,0-.45-.17.59.59,0,0,0-.44.17,1.29,1.29,0,0,0-.22.93,1.31,1.31,0,0,0,.22.94.59.59,0,0,0,.44.17.61.61,0,0,0,.45-.17,1.32,1.32,0,0,0,.22-.94A1.31,1.31,0,0,0,277.85,333.14Z" transform="translate(-24.9 -24.72)"/><path class="cls-1" d="M281.54,336h-.75l-1.41-3.84h1l.78,2.37.77-2.37h1Z" transform="translate(-24.9 -24.72)"/><path class="cls-1" d="M285.42,336v-.33a1.16,1.16,0,0,1-.94.37,1.3,1.3,0,0,1-1-.34,1.23,1.23,0,0,1-.32-.86c0-.61.42-1.11,1.31-1.11h.91v-.19c0-.42-.21-.6-.71-.6a.82.82,0,0,0-.74.32l-.61-.6a1.62,1.62,0,0,1,1.38-.53c1.08,0,1.64.46,1.64,1.35V336Zm0-1.62h-.76c-.35,0-.54.16-.54.43s.18.44.55.44a.76.76,0,0,0,.6-.18.63.63,0,0,0,.14-.49Z" transform="translate(-24.9 -24.72)"/><path class="cls-1" d="M288.6,336a1,1,0,0,1-1.11-1.1V333h-.4v-.73h.4v-1.13h1v1.13h.68V333h-.68v1.84c0,.22.1.35.33.35h.35V336Z" transform="translate(-24.9 -24.72)"/><path class="cls-1" d="M290,331.5v-.78h1v.78Zm0,4.49v-3.84h1V336Z" transform="translate(-24.9 -24.72)"/><path class="cls-1" d="M294.7,335.56a1.74,1.74,0,0,1-2.38,0,2.78,2.78,0,0,1,0-3,1.74,1.74,0,0,1,2.38,0,2.77,2.77,0,0,1,0,3Zm-.74-2.42a.61.61,0,0,0-.45-.17.59.59,0,0,0-.44.17,1.3,1.3,0,0,0-.22.93,1.31,1.31,0,0,0,.22.94.59.59,0,0,0,.44.17A.61.61,0,0,0,294,335a1.32,1.32,0,0,0,.22-.94A1.3,1.3,0,0,0,294,333.14Z" transform="translate(-24.9 -24.72)"/><path class="cls-1" d="M298.29,336v-2.32a.64.64,0,1,0-1.27,0V336h-1v-3.84H297v.35a1.31,1.31,0,0,1,1-.4,1.25,1.25,0,0,1,.91.34,1.42,1.42,0,0,1,.39,1.09V336Z" transform="translate(-24.9 -24.72)"/><path class="cls-1" d="M303.53,336a2.46,2.46,0,0,1-1.92-.69l.66-.66a1.72,1.72,0,0,0,1.27.44c.6,0,.93-.23.93-.65a.58.58,0,0,0-.16-.44.77.77,0,0,0-.46-.18l-.63-.09a1.78,1.78,0,0,1-1-.43,1.39,1.39,0,0,1-.37-1,1.62,1.62,0,0,1,1.83-1.59,2.25,2.25,0,0,1,1.7.61l-.65.64a1.46,1.46,0,0,0-1.08-.36c-.55,0-.81.3-.81.66a.51.51,0,0,0,.15.38.9.9,0,0,0,.49.21l.62.09a1.72,1.72,0,0,1,1,.4,1.47,1.47,0,0,1,.41,1.11C305.48,335.46,304.63,336,303.53,336Z" transform="translate(-24.9 -24.72)"/><path class="cls-1" d="M306.46,336v-5.25h3.46v.91h-2.43v1.23h2.07v.91h-2.07v1.28h2.43V336Z" transform="translate(-24.9 -24.72)"/><path class="cls-1" d="M312,331.66v1.29H314v.91H312V336h-1v-5.25h3.46v.91Z" transform="translate(-24.9 -24.72)"/><path class="cls-1" d="M318.07,336l-1-2.09h-.74V336h-1v-5.25h2.05a1.59,1.59,0,0,1,1.7,1.61,1.41,1.41,0,0,1-1,1.38l1.17,2.26Zm-.8-4.33h-1V333h1a.69.69,0,1,0,0-1.39Z" transform="translate(-24.9 -24.72)"/><path class="cls-1" d="M320.12,336v-5.25h1V336Z" transform="translate(-24.9 -24.72)"/><path class="cls-1" d="M202.67,369.79H189v27.43h27.43V369.79Zm9.14,16.46h-6.4v6.4h-5.48v-6.4h-6.4v-5.48h6.4v-6.4h5.48v6.4h6.4Z" transform="translate(-24.9 -24.72)"/></svg>