<svg id="Calque_1" data-name="Calque 1" xmlns="http://www.w3.org/2000/svg" viewBox="0 0 526.79 147.94"><defs><style>.cls-1{fill:#fff;}</style></defs><title>Viscom-logo-blanc</title><path class="cls-1" d="M95.43,396.64A17.84,17.84,0,0,1,99,390.81q2.07-2.14,6.5-2.14a14.08,14.08,0,0,1,6.72,1.39,24.48,24.48,0,0,1,2.87,1.7q-.88,3.1-3,8.49t-5.18,12q-3,6.65-6.49,13.88t-6.86,14.09q-3.4,6.87-6.43,12.77c-2,3.93-3.71,7.18-5.09,9.74H65.46q-4-7.22-8.34-15.71t-8.27-16.39q-3.91-7.89-6.94-14.24T37.56,407a55.26,55.26,0,0,1-2.14-5.46A17.65,17.65,0,0,1,34.31,396a7.24,7.24,0,0,1,2.06-5.24c1.38-1.43,3.49-2.14,6.35-2.14a18.31,18.31,0,0,1,5.09.59,8,8,0,0,1,2.29.88q3,8,6.35,16.17t6.72,15.49q3.32,7.32,6.2,13.29t4.8,9.82q2.8-5.31,6.05-12.55T86.49,418q3-7.09,5.47-12.92T95.43,396.64Z" transform="translate(-34.31 -348)"/><path class="cls-1" d="M118.08,365.64a10.08,10.08,0,1,1,3,7.23A9.85,9.85,0,0,1,118.08,365.64Zm1.77,30.85q0-4.13,2.36-6a10.56,10.56,0,0,1,6.64-1.84,16.94,16.94,0,0,1,4.87.66c1.48.45,2.46.76,3,1v72.47H119.84Z" transform="translate(-34.31 -348)"/><path class="cls-1" d="M216.42,440.48a21.11,21.11,0,0,1-8.78,17.71q-8.79,6.65-25.32,6.64a81.65,81.65,0,0,1-14.47-1.18,88,88,0,0,1-11.29-2.73,57.52,57.52,0,0,1-7.76-3,23.7,23.7,0,0,1-3.84-2.22l6.35-11.36a23.65,23.65,0,0,0,3.7,1.92,64.43,64.43,0,0,0,6.57,2.44,68.23,68.23,0,0,0,8.93,2.14,62.89,62.89,0,0,0,10.92.89,33.56,33.56,0,0,0,12.55-2q4.87-2,4.88-6.87a7.17,7.17,0,0,0-3.1-6.28c-2.06-1.42-5.76-2.43-11.07-3l-11.52-1.34a54.07,54.07,0,0,1-10.85-2.13,28.24,28.24,0,0,1-8.49-4.21,18.73,18.73,0,0,1-5.53-6.57,20.37,20.37,0,0,1-2-9.37,22,22,0,0,1,1.85-8.93,19.88,19.88,0,0,1,5.83-7.45,29,29,0,0,1,10.41-5.09A56.87,56.87,0,0,1,180,386.6a77.52,77.52,0,0,1,16.32,1.48,47.2,47.2,0,0,1,10.85,3.55q5.17,2.8,5.17,7.23a6.85,6.85,0,0,1-.66,3.1,14.15,14.15,0,0,1-1.48,2.36,9.43,9.43,0,0,1-1.7,1.7,5.58,5.58,0,0,1-1.33.81,17.82,17.82,0,0,0-2.58-1.85,30.37,30.37,0,0,0-5.39-2.51,56.66,56.66,0,0,0-8.12-2.22,55.42,55.42,0,0,0-10.92-1q-17.13,0-17.12,9a6.43,6.43,0,0,0,3.24,5.83,23.48,23.48,0,0,0,9.3,2.73l15.06,1.92q12.25,1.62,19,6.71T216.42,440.48Z" transform="translate(-34.31 -348)"/><path class="cls-1" d="M288.42,457.46a36.83,36.83,0,0,1-4.35,2.43,50.37,50.37,0,0,1-5.91,2.37,54.67,54.67,0,0,1-7.53,1.84,55.24,55.24,0,0,1-9.53.74,47,47,0,0,1-15.5-2.5,36.48,36.48,0,0,1-12.7-7.46,35.32,35.32,0,0,1-8.64-12.18A41.12,41.12,0,0,1,221.1,426a43.19,43.19,0,0,1,3.1-16.83,35.11,35.11,0,0,1,8.56-12.4,36.62,36.62,0,0,1,12.92-7.6,53.84,53.84,0,0,1,31-.59q6.13,2,8.49,4.2a10.81,10.81,0,0,1,2.21,2.73,7.14,7.14,0,0,1,.88,3.61,8.59,8.59,0,0,1-2,5.46,21.54,21.54,0,0,1-3.76,3.84,28.28,28.28,0,0,0-7.67-4.8,29.88,29.88,0,0,0-12.4-2.29,29,29,0,0,0-9.37,1.48,20.09,20.09,0,0,0-7.54,4.5,21.51,21.51,0,0,0-5,7.53,28,28,0,0,0-1.85,10.7,28.53,28.53,0,0,0,1.92,11.07,20.05,20.05,0,0,0,5.31,7.53,21.83,21.83,0,0,0,7.82,4.35,31.72,31.72,0,0,0,9.6,1.4q7.38,0,11.88-2a54.17,54.17,0,0,0,6.13-3Z" transform="translate(-34.31 -348)"/><path class="cls-1" d="M372.14,425.72a38.5,38.5,0,0,1-3.1,15.43,38,38,0,0,1-8.56,12.4,40.56,40.56,0,0,1-12.92,8.27,44,44,0,0,1-32,0,40.42,40.42,0,0,1-12.91-8.27,37.81,37.81,0,0,1-8.56-12.4,40.32,40.32,0,0,1,0-31,37.76,37.76,0,0,1,8.56-12.4,39.5,39.5,0,0,1,12.91-8.19,44.91,44.91,0,0,1,32,0,39.64,39.64,0,0,1,12.92,8.19,38,38,0,0,1,8.56,12.4A38.88,38.88,0,0,1,372.14,425.72Zm-17.57,0a27.1,27.1,0,0,0-1.69-9.66,23.63,23.63,0,0,0-4.72-7.76,21.51,21.51,0,0,0-7.31-5.09,23.42,23.42,0,0,0-9.3-1.85,23.18,23.18,0,0,0-9.36,1.85,21.64,21.64,0,0,0-7.24,5.09,23.13,23.13,0,0,0-4.71,7.76,27.1,27.1,0,0,0-1.7,9.66,26,26,0,0,0,1.7,9.52,24.26,24.26,0,0,0,4.71,7.67,21,21,0,0,0,7.24,5.16,22.86,22.86,0,0,0,9.36,1.86,23.09,23.09,0,0,0,9.3-1.86,20.84,20.84,0,0,0,7.31-5.16,24.82,24.82,0,0,0,4.72-7.67A26,26,0,0,0,354.56,425.72Z" transform="translate(-34.31 -348)"/><path class="cls-1" d="M483.15,462.76V420.7q0-10.19-4.58-14.54t-12.4-4.35a17.55,17.55,0,0,0-12.62,4.87q-5.1,4.87-5.1,15.8v40.3H431.63v-40.3q0-10.92-5.1-15.8a17.52,17.52,0,0,0-12.62-4.87q-7.67,0-12.39,4.43t-4.72,14.62v41.92H380V415.09a28.78,28.78,0,0,1,2.5-12.4,25.08,25.08,0,0,1,6.86-8.86,30.54,30.54,0,0,1,10.26-5.39,42.87,42.87,0,0,1,12.85-1.85,38.08,38.08,0,0,1,16.39,3.4,27.12,27.12,0,0,1,11.51,10,27.27,27.27,0,0,1,11.37-10,36.69,36.69,0,0,1,16.09-3.4,43.86,43.86,0,0,1,12.69,1.77,28.87,28.87,0,0,1,10.2,5.32,25.65,25.65,0,0,1,6.79,8.86,28.82,28.82,0,0,1,2.5,12.39v47.83Z" transform="translate(-34.31 -348)"/><path class="cls-1" d="M552.24,356.86a31,31,0,1,0,8.86,21.7A29.57,29.57,0,0,0,552.24,356.86Zm0,28.1H537.44v15.69H523.73V385H512.47a4.23,4.23,0,0,1-3.56-1.35,5.73,5.73,0,0,1-1-3.59,26.68,26.68,0,0,1,.39-4.69c.26-.81.45-3.35.56-3.64h14.91V360a4.28,4.28,0,0,1,1.34-3.47,5.74,5.74,0,0,1,3.77-1.12,29.08,29.08,0,0,1,4.86.39c.87.26,3.45.48,3.74.65v15.25h11.18a4.31,4.31,0,0,1,3.55,1.3,5.5,5.5,0,0,1,1,3.56,27.6,27.6,0,0,1-.39,4.78C552.56,382.13,552.37,384.67,552.26,385Z" transform="translate(-34.31 -348)"/><path class="cls-1" d="M145,473.6h8.87c5.7,0,9.2,4.33,9.2,10.63,0,4.91-2.13,11.24-9.32,11.24H145Zm3,19.35h5.73c3.84,0,6.34-3,6.34-8.53s-2.53-8.29-6.55-8.29h-5.52Z" transform="translate(-34.31 -348)"/><path class="cls-1" d="M180.81,495.48v-2.32l-.06-.06a5.25,5.25,0,0,1-5.06,2.83c-2.35,0-5.18-1.13-5.18-4.94V479.55h2.68v10.57c0,2.62,1.34,3.5,3.08,3.5,3.38,0,4.39-3,4.39-5.3v-8.78h2.68v15.94Z" transform="translate(-34.31 -348)"/><path class="cls-1" d="M194.8,495.48h-2.68V479.55h2.53v2.65h.06c1.07-1.86,2.47-3.11,4.48-3.11a2.17,2.17,0,0,1,.7.09V482h-1a4.05,4.05,0,0,0-4.08,4.27Z" transform="translate(-34.31 -348)"/><path class="cls-1" d="M205.89,484.39c.12-3.81,2.65-5.3,6.58-5.3,1.28,0,5.91.37,5.91,4.45v9.17c0,.67.34.94.88.94a5.08,5.08,0,0,0,.88-.12v2a5,5,0,0,1-1.46.3c-2.38,0-2.74-1.22-2.83-2.44a7.25,7.25,0,0,1-5.76,2.59c-2.93,0-5-1.86-5-4.6,0-1.34.4-4.45,4.84-5l4.42-.55c.64-.06,1.4-.3,1.4-1.89s-1.22-2.59-3.75-2.59c-3,0-3.47,1.86-3.66,3.08Zm9.81,3c-.43.34-1.1.58-4.42,1-1.31.18-3.41.58-3.41,2.59,0,1.74.88,2.77,2.89,2.77,2.5,0,4.94-1.61,4.94-3.75Z" transform="translate(-34.31 -348)"/><path class="cls-1" d="M227.1,495.48V473.6h2.68v8h.06a5.43,5.43,0,0,1,4.6-2.47c4.24,0,6.64,3.47,6.64,8,0,3.81-1.58,8.9-7,8.9a4.76,4.76,0,0,1-4.39-2.44h-.06v2Zm6.86-14c-3.87,0-4.3,4.17-4.3,6.76,0,4.24,2.65,5.36,4.36,5.36,2.93,0,4.3-2.65,4.3-6.16C238.32,485.43,238.1,481.5,234,481.5Z" transform="translate(-34.31 -348)"/><path class="cls-1" d="M248.71,476.65v-3h2.68v3Zm2.68,18.83h-2.68V479.55h2.68Z" transform="translate(-34.31 -348)"/><path class="cls-1" d="M262.55,495.48h-2.68V473.6h2.68Z" transform="translate(-34.31 -348)"/><path class="cls-1" d="M271,476.65v-3h2.68v3Zm2.68,18.83H271V479.55h2.68Z" transform="translate(-34.31 -348)"/><path class="cls-1" d="M285.4,481.77v10.36c0,1.25,1.07,1.25,1.61,1.25H288v2.1c-1,.09-1.74.21-2,.21-2.65,0-3.23-1.49-3.23-3.41V481.77h-2.16v-2.22h2.16V475.1h2.68v4.45H288v2.22Z" transform="translate(-34.31 -348)"/><path class="cls-1" d="M307.89,490.49a6.63,6.63,0,0,1-7.16,5.45c-4.48,0-7.13-3.38-7.13-8,0-4.94,2.38-8.87,7.65-8.87,4.6,0,6.86,3.66,6.86,9.29H296.47c0,3.32,1.55,5.24,4.63,5.24a4,4,0,0,0,4.11-3.14Zm-2.56-4.24c-.15-2.47-1.19-4.75-4.45-4.75a4.68,4.68,0,0,0-4.42,4.75Zm-3.78-8.84h-2l2.71-4.3h3.29Z" transform="translate(-34.31 -348)"/><path class="cls-1" d="M342.09,490.49a6.63,6.63,0,0,1-7.16,5.45c-4.48,0-7.13-3.38-7.13-8,0-4.94,2.38-8.87,7.65-8.87,4.6,0,6.86,3.66,6.86,9.29H330.66c0,3.32,1.55,5.24,4.63,5.24a4,4,0,0,0,4.11-3.14Zm-2.56-4.24c-.15-2.47-1.19-4.75-4.45-4.75a4.68,4.68,0,0,0-4.42,4.75Z" transform="translate(-34.31 -348)"/><path class="cls-1" d="M361.93,495.48h-3.41l-4-6-3.84,6h-3.38l5.61-8.2-5.33-7.74H351l3.69,5.61,3.69-5.61h3.29l-5.39,7.74Z" transform="translate(-34.31 -348)"/><path class="cls-1" d="M377.35,484.91c-.34-2.13-1.52-3.41-3.78-3.41-3.32,0-4.39,3.17-4.39,6s.67,6.12,4.36,6.12c1.8,0,3.35-1.34,3.81-3.78h2.59c-.27,2.53-1.83,6.09-6.49,6.09-4.48,0-7.13-3.38-7.13-8,0-4.94,2.38-8.87,7.65-8.87,4.17,0,5.76,3,6,5.82Z" transform="translate(-34.31 -348)"/><path class="cls-1" d="M400.54,490.49a6.63,6.63,0,0,1-7.16,5.45c-4.48,0-7.13-3.38-7.13-8,0-4.94,2.38-8.87,7.65-8.87,4.6,0,6.86,3.66,6.86,9.29H389.11c0,3.32,1.55,5.24,4.63,5.24a4,4,0,0,0,4.11-3.14ZM398,486.25c-.15-2.47-1.19-4.75-4.45-4.75a4.68,4.68,0,0,0-4.42,4.75Z" transform="translate(-34.31 -348)"/><path class="cls-1" d="M411.09,495.48h-2.68V473.6h2.68Z" transform="translate(-34.31 -348)"/><path class="cls-1" d="M422.24,495.48h-2.68V473.6h2.68Z" transform="translate(-34.31 -348)"/><path class="cls-1" d="M444.18,490.49a6.63,6.63,0,0,1-7.16,5.45c-4.48,0-7.13-3.38-7.13-8,0-4.94,2.38-8.87,7.65-8.87,4.6,0,6.86,3.66,6.86,9.29H432.76c0,3.32,1.55,5.24,4.63,5.24a4,4,0,0,0,4.11-3.14Zm-2.56-4.24c-.15-2.47-1.19-4.75-4.45-4.75a4.68,4.68,0,0,0-4.42,4.75Z" transform="translate(-34.31 -348)"/><path class="cls-1" d="M465,495.48h-2.68v-9.81c0-2.77-.79-4.17-3.41-4.17-1.52,0-4.2,1-4.2,5.3v8.68H452V479.55h2.53v2.25h.06a5.78,5.78,0,0,1,4.81-2.71c2.47,0,5.58,1,5.58,5.55Z" transform="translate(-34.31 -348)"/><path class="cls-1" d="M476.61,481.77v10.36c0,1.25,1.07,1.25,1.61,1.25h.94v2.1c-1,.09-1.74.21-2,.21-2.65,0-3.23-1.49-3.23-3.41V481.77h-2.16v-2.22h2.16V475.1h2.68v4.45h2.56v2.22Z" transform="translate(-34.31 -348)"/><path class="cls-1" d="M499.1,490.49a6.63,6.63,0,0,1-7.16,5.45c-4.48,0-7.13-3.38-7.13-8,0-4.94,2.38-8.87,7.65-8.87,4.6,0,6.86,3.66,6.86,9.29H487.67c0,3.32,1.55,5.24,4.63,5.24a4,4,0,0,0,4.11-3.14Zm-2.56-4.24c-.15-2.47-1.19-4.75-4.45-4.75a4.68,4.68,0,0,0-4.42,4.75Z" transform="translate(-34.31 -348)"/></svg>