<svg id="Calque_1" data-name="Calque 1" xmlns="http://www.w3.org/2000/svg" viewBox="0 0 140 89.72"><defs><style>.cls-1{fill:#fff;}</style></defs><title>zero_emission-blanc</title><path class="cls-1" d="M316.66,418.6a22.91,22.91,0,0,1-7.61,1.42c-5.83,0-10-3.2-10-9.5,0-6,4.51-9.19,10.5-9.19a23.54,23.54,0,0,1,7,1.36V393a49,49,0,0,0-10-1.16c-11.76,0-21.95,6.14-21.95,18.43,0,13.07,9.77,19.48,21.95,19.48a40.06,40.06,0,0,0,10.08-1.47V418.6Zm41.47-7.77c0-12.29-7.66-19-20.47-19s-20.32,6.67-20.32,19c0,12.5,7.51,19,20.32,19s20.47-6.46,20.47-19Zm-26.09,0c0-3.41.42-10.13,5.62-10.13,5.35,0,5.72,6.72,5.77,10.13-.05,3.94-.21,10.13-5.77,10.13-5,0-5.62-6.2-5.62-10.13Zm34.53,25.84v-.06c3.83-1.93,8.75-4.65,8.75-9.52,0-5.51-5.05-7-9.7-7a38.27,38.27,0,0,0-6.76.67v5.57a12.18,12.18,0,0,1,4.77-.92c2,0,4,.77,4,3,0,1.81-1.56,3-2.94,4-2.08,1.35-4.9,2.81-6.24,3.49v6h16.9v-5.14Z" transform="translate(-235.33 -352.09)"/><path class="cls-1" d="M241.74,369.64l-2.21,3.48h3.1l4.39-3.48Zm-6.4,20.23H249v-3.75h-7.81V384h7.32v-3.75h-7.32V378h7.65V374.3H235.33v15.57Zm14.92,0h5.08l.07-12.22h.09l3,12.22h5l3.06-12.22h0l.09,12.22H272V374.3h-8.81l-2,8.52h0l-2-8.52h-8.83v15.57Zm23.42-15.57v15.57h6V374.3Zm20.27.27a26.68,26.68,0,0,0-5.15-.53c-3.55,0-8,.76-8,5,0,6,8.18,4.15,8.18,6.25,0,.78-1.27,1.07-2.68,1.07a14.46,14.46,0,0,1-5.35-1v4a27,27,0,0,0,6.42.74c3.46,0,7.58-1.05,7.58-5.22,0-6-8.19-4.08-8.19-6.11,0-1,1.63-1,2.57-1a14.1,14.1,0,0,1,4.62.78v-4Zm14.72,0a26.66,26.66,0,0,0-5.15-.53c-3.55,0-8,.76-8,5,0,6,8.18,4.15,8.18,6.25,0,.78-1.27,1.07-2.68,1.07a14.45,14.45,0,0,1-5.35-1v4a27,27,0,0,0,6.42.74c3.46,0,7.58-1.05,7.58-5.22,0-6-8.19-4.08-8.19-6.11,0-1,1.63-1,2.56-1a14.1,14.1,0,0,1,4.62.78v-4Zm2.14-.27v15.57h6V374.3Zm24.31,7.79c0-5.22-3.25-8.05-8.7-8.05s-8.63,2.83-8.63,8.05,3.19,8.05,8.63,8.05,8.7-2.75,8.7-8.05Zm-11.08,0c0-1.45.18-4.3,2.39-4.3s2.43,2.86,2.45,4.3c0,1.67-.09,4.3-2.45,4.3-2.14,0-2.39-2.63-2.39-4.3Zm12,7.79h5.13V378.59h0l3,11.29H353V374.3h-5.13v11h0l-2.88-11H336v15.57Z" transform="translate(-235.33 -352.09)"/><path class="cls-1" d="M271.93,356.75v4h7.36l-7.63,6.82v4.73h14.39v-4.15h-7.63l7.38-6.69v-4.73Zm21.32-4.66-2.21,3.48h3.1l4.39-3.48Zm-6.4,20.23h13.65v-3.75H292.7v-2.12H300v-3.75H292.7V360.5h7.65v-3.75H286.86v15.57Zm14.72,0h6V367h1.34c.73,0,1.34.09,1.7.8.49.94.56,3.37.82,4.48h6.23c-.63-1.52-.56-3.93-1.47-5.58a3.74,3.74,0,0,0-2.63-1.67v0c2.23-.54,3.72-1.74,3.72-4.13,0-3-2.3-4.15-6-4.15h-9.66v15.57Zm5.71-12.09h1.65c1.2,0,2.34.2,2.34,1.61,0,1.58-1.21,1.72-2.43,1.72h-1.56v-3.32Zm27.92,4.3c0-5.22-3.26-8.05-8.7-8.05s-8.63,2.83-8.63,8.05,3.19,8.05,8.63,8.05,8.7-2.74,8.7-8.05Zm-11.09,0c0-1.45.18-4.3,2.39-4.3s2.43,2.86,2.45,4.3c0,1.67-.09,4.3-2.45,4.3-2.14,0-2.39-2.63-2.39-4.3Z" transform="translate(-235.33 -352.09)"/></svg>